<?xml version="1.0" encoding="UTF-8" standalone="no"?>
<!-- Created with Inkscape (http://www.inkscape.org/) -->

<svg
   version="1.1"
   id="svg1"
   width="6250"
   height="5000"
   viewBox="0 0 6250 5000"
   sodipodi:docname="home_pic.svg"
   inkscape:version="1.3 (0e150ed6c4, 2023-07-21)"
   xmlns:inkscape="http://www.inkscape.org/namespaces/inkscape"
   xmlns:sodipodi="http://sodipodi.sourceforge.net/DTD/sodipodi-0.dtd"
   xmlns="http://www.w3.org/2000/svg"
   xmlns:svg="http://www.w3.org/2000/svg">
  <defs
     id="defs1" />
  <sodipodi:namedview
     id="namedview1"
     pagecolor="#505050"
     bordercolor="#ffffff"
     borderopacity="1"
     inkscape:showpageshadow="0"
     inkscape:pageopacity="0"
     inkscape:pagecheckerboard="1"
     inkscape:deskcolor="#505050"
     inkscape:zoom="0.0821"
     inkscape:cx="1796.5895"
     inkscape:cy="1321.5591"
     inkscape:window-width="1920"
     inkscape:window-height="1017"
     inkscape:window-x="-8"
     inkscape:window-y="-8"
     inkscape:window-maximized="1"
     inkscape:current-layer="g1" />
  <g
     inkscape:groupmode="layer"
     inkscape:label="Image"
     id="g1">
    <path
       style="fill:#17280b;stroke-width:1.22174"
       d="m -90.619374,4990.4841 c -3.291905,-2.3233 -5.90853,-5.3726 -5.967956,-6.9548 -0.02115,-0.5624 1.365561,0.686 3.081523,2.7744 1.715982,2.0883 4.84147,4.3072 6.945548,4.931 2.547987,0.7554 3.007703,1.1714 1.376531,1.2457 -1.34698,0.062 -3.793011,-0.8369 -5.435646,-1.9963 z m 6346.039674,0.7506 c 2.1042,-0.6238 5.2298,-2.8427 6.9456,-4.931 1.716,-2.0884 3.12,-3.2553 3.12,-2.5933 0,2.226 -8.5127,8.8827 -11.2153,8.77 -2.0593,-0.085 -1.7944,-0.3728 1.1497,-1.2457 z M -97.553428,4977.7488 c 0,-2.3811 0.24858,-3.3552 0.552409,-2.1647 0.303829,1.1906 0.303829,3.1388 0,4.3293 -0.303829,1.1906 -0.552409,0.2165 -0.552409,-2.1646 z m 6363.319528,0 c 0,-2.3811 0.2486,-3.3552 0.5525,-2.1647 0.3037,1.1906 0.3037,3.1388 0,4.3293 -0.3039,1.1906 -0.5525,0.2165 -0.5525,-2.1646 z m -6362.359711,-5.9977 c -0.04397,-2.2803 7.004597,-8.8521 9.456972,-8.8174 1.127344,0.016 0.403922,0.8279 -1.673054,1.8777 -2.012547,1.0173 -4.580015,3.3702 -5.705465,5.2288 -1.125471,1.8586 -2.060772,2.6285 -2.078453,1.7109 z m 6358.024711,-3.4837 c -1.92,-2.3082 -2.6221,-3.823 -1.5824,-3.4146 1.815,0.7133 6.2321,6.6045 5.4317,7.2447 -0.2191,0.1752 -1.9514,-1.5483 -3.8493,-3.8301 z m -6244.730879,-6.5882 100.642809,-0.6291 2.08003,-6.2923 c 4.2868,-12.9677 12.4928,-23.1376 24.74184,-30.663 13.45751,-8.2677 12.32511,-8.1928 123.93749,-8.1928 55.17647,0 100.32085,-0.2726 100.32085,-0.6059 0,-0.3331 -2.41578,-4.4652 -5.36839,-9.1821 -4.59644,-7.3432 -6.63736,-9.324 -14.19305,-13.7747 -78.13823,-46.0277 -139.79531,-112.616 -179.72783,-194.1024 -25.29072,-51.6083 -42.46253,-115.8543 -45.38486,-169.8014 -0.97805,-18.0549 -1.03906,-18.2485 -5.7506,-18.2485 -5.29474,0 -6.86212,-1.9114 -6.86212,-8.3687 0,-10.9893 -4.23087,-10.1853 53.5936,-10.1853 28.10101,0 51.39601,-0.3106 51.76666,-0.6901 1.94703,-1.9938 -0.84874,-5.4852 -4.93406,-6.1617 -6.79453,-1.1251 -14.15426,-4.1276 -16.43024,-6.7029 -5.23983,-5.929 -3.35521,-16.9657 6.14552,-35.9896 4.21181,-8.4334 5.26955,-11.8222 5.21215,-16.6986 -0.083,-7.0508 -1.61144,-17.5311 -2.7227,-18.6691 -0.41708,-0.4271 -4.44332,2.2763 -8.94716,6.0075 -17.55965,14.5472 -37.99117,26.3894 -51.54496,29.8758 -37.76535,9.7143 -89.178924,-13.9036 -148.3463177,-68.1459 -18.7429503,-17.1828 -25.5801663,-24.5323 -24.7882433,-26.6456 0.416725,-1.1121 4.157491,-2.3323 10.130273,-3.3047 30.221785,-4.9198 75.272825,-28.0466 104.361173,-53.5734 16.665515,-14.6249 26.188505,-28.3825 22.660025,-32.7363 -1.27483,-1.5728 -3.58429,-1.7912 -13.045439,-1.2332 -14.311233,0.8442 -39.602299,7.3797 -91.8230246,23.728 -51.9745844,16.2712 -55.5363304,17.1638 -65.5596534,16.4294 -6.571898,-0.4815 -10.471075,-1.703 -18.77808,-5.8826 -8.763247,-4.4093 -12.367356,-7.2278 -21.959173,-17.1724 -12.69821,-13.1653 -20.01731,-24.7064 -27.13702,-42.7912 -7.65937,-19.4554 -13.93225,-50.6128 -13.93225,-69.2014 0,-38.0371 25.86743,-70.6595 74.970668,-94.5484 17.235037,-8.3849 38.086534,-16.0801 55.856028,-20.6137 6.7714678,-1.7277 13.12710062,-3.4468 14.123639,-3.8203 1.0206772,-0.3825 -3.07005,-2.4751 -9.3678376,-4.7922 -23.3755554,-8.6 -44.1492254,-23.1963 -68.6050624,-48.2042 -28.477605,-29.1204 -54.740415,-66.551 -80.253755,-114.3803 -11.14883,-20.9005 -30.20879,-61.237 -30.20879,-63.9307 0,-2.2782 2.43643,-2.103 17.51483,1.2596 20.16648,4.4972 51.76638,5.2181 82.13854,1.8737 66.462609,-7.3183 139.35175,-33.9001 149.952082,-54.6857 2.551263,-5.0025 1.068326,-7.9166 -5.857856,-11.5107 -17.889162,-9.2828 -61.7411844,-14.6029 -167.044706,-20.2653 -70.85445,-3.8101 -85.91055,-5.2988 -95.62408,-9.4549 -11.85711,-5.0732 -28.81214,-20.7265 -38.67589,-35.7065 -30.38696,-46.1485 -36.39305,-113.7854 -17.07993,-192.3435 7.60977,-30.9536 23.6952,-55.5652 48.70675,-74.5239 45.39376,-34.4086 126.264073,-47.6554 220.4453033,-36.1098 8.3044407,1.018 16.0202647,2.1418 17.1462487,2.4973 1.126005,0.3555 12.496801,16.3431 25.268455,35.5281 92.537573,139.0055 161.586603,223.5707 188.640703,231.0306 6.25866,1.7257 8.91468,0.5836 10.56737,-4.5445 2.63491,-8.1756 -2.83816,-29.7257 -15.33029,-60.3626 -15.12766,-37.1006 -57.15621,-119.9675 -90.45392,-178.3463 -3.70745,-6.4999 -2.05402,-7.9391 9.12146,-7.9391 35.53849,0 97.71376,15.5416 165.44041,41.3541 6.29221,2.3982 11.82403,3.9545 12.29293,3.4587 0.46891,-0.4959 7.06995,-13.7039 14.66899,-29.3511 42.29962,-87.0996 88.66491,-160.9986 151.33394,-241.2025 19.02504,-24.3483 45.29416,-56.4854 54.09289,-66.1761 2.77961,-3.0614 9.62052,-10.8541 15.20195,-17.3171 29.08457,-33.678 59.41786,-65.8471 147.36532,-156.2837 46.21045,-47.5183 84.56734,-87.0384 85.2378,-87.8225 0.67047,-0.7841 5.29076,-6.1673 10.26738,-11.9629 4.97662,-5.7955 11.76607,-14.0622 15.08793,-18.3703 3.32176,-4.3081 8.43635,-10.9092 11.36556,-14.669 9.70767,-12.4599 34.47981,-51.4034 43.8814,-68.9845 56.94452,-106.4872 80.41782,-221.9396 77.83603,-382.8316 -0.39851,-24.8315 -1.2776,-53.4975 -1.95351,-63.7022 -0.67601,-10.2048 -1.8013,-28.0607 -2.50066,-39.6799 -0.69946,-11.6192 -1.52967,-23.5866 -1.84485,-26.5942 -0.3154,-3.0075 -1.3716,-15.2091 -2.34731,-27.1146 -2.25132,-27.4704 -4.61799,-53.0462 -9.15664,-98.9549 -3.25414,-32.9153 -4.61893,-47.0306 -8.43174,-87.2039 -6.35869,-66.9968 -11.04137,-132.5991 -13.81797,-193.5805 -1.80769,-39.7035 -1.53092,-126.3479 0.51554,-161.4201 5.23706,-89.7476 15.91531,-171.8522 32.49605,-249.8611 6.4439,-30.3166 8.06306,-37.4524 13.03403,-57.4418 37.98256,-152.7343 94.1766,-293.2105 173.7072,-434.24016 5.1793,-9.18425 10.4389,-18.17615 11.688,-19.98196 1.249,-1.8058 2.271,-3.63572 2.271,-4.06667 0,-1.13699 24.6325,-41.05168 40.8832,-66.24769 69.9903,-108.51663 156.4809,-214.74641 243.4784,-299.04581 14.5589,-14.10738 27.0608,-26.21859 27.782,-26.91387 4.9766,-4.79671 34.0274,-30.61503 46.0045,-40.88543 73.7551,-63.24564 168.7387,-129.31014 248.8315,-173.07108 5.9792,-3.26699 11.4148,-6.36057 12.0791,-6.87488 4.9105,-3.80086 114.5982,-58.07056 117.37,-58.07056 0.3063,0 3.6476,-1.45414 7.4252,-3.23149 13.6202,-6.40856 69.0086,-28.83421 93.8383,-37.99335 50.5326,-18.6405 108.2834,-37.38898 149.178,-48.43 8.9689,-2.42142 23.3733,-6.31159 32.0098,-8.64494 97.5908,-26.36566 233.6675,-50.801575 351.5046,-63.121444 18.9426,-1.980458 25.3849,-2.677224 34.4258,-3.7233 5.0133,-0.58 30.7735,-2.71223 67.4525,-5.583158 78.3635,-6.133717 153.9366,-8.79449 269.9447,-9.504615 100.6689,-0.616118 146.6142,0.117509 214.0179,3.420499 184.681,9.047938 340.0336,33.094825 483.1678,74.788968 29.4111,8.56726 77.0382,24.04887 94.8218,30.82283 4.3183,1.64488 13.0153,4.95294 19.3267,7.35123 81.0984,30.81715 158.9616,69.22252 230.1086,113.49913 140.5542,87.47066 255.9279,194.73032 376.3481,349.87992 24.2776,31.27951 62.5081,82.52725 87.7971,117.69173 9.4682,13.16557 24.688,34.31606 33.8217,47.00121 9.1337,12.68502 22.8578,31.83168 30.4978,42.54787 43.4285,60.91451 86.6019,119.28156 114.676,155.03284 7.6821,9.7828 15.0546,19.27987 16.3834,21.10447 1.3286,1.82461 9.2103,11.53271 17.5148,21.57351 8.3044,10.0407 16.7897,20.4172 18.856,23.0589 9.9681,12.7426 53.7427,61.0399 72.8441,80.3701 45.0955,45.6355 84.8463,80.0808 126.046,109.2227 51.4725,36.4081 85.685,54.548 161.5406,85.6512 27.5707,11.305 56.3797,23.2477 64.0196,26.5396 7.6402,3.2919 24.4907,10.5423 37.4456,16.112 85.9138,36.9367 162.4097,74.46 230.0088,112.8253 66.42,37.6963 136.4363,85.0687 188.1626,127.309 4.4456,3.6303 10.1522,8.2705 12.6811,10.3114 58.6731,47.3485 132.5051,122.9853 182.3209,186.7773 35.4198,45.3572 74.9494,102.8466 98.6595,143.4846 44.0819,75.5544 71.8842,130.7712 105.5662,209.6606 51.3069,120.1708 100.3345,278.0727 130.7726,421.1766 1.3023,6.1229 4.0271,18.9252 6.0553,28.4496 35.5723,167.0576 62.2852,384.2616 71.2705,579.5044 0.7045,15.3071 1.8071,38.9635 2.4502,52.5698 2.3916,50.5944 3.8966,165.6156 3.1433,240.2342 -0.4205,41.647 -1.0168,78.9406 -1.3252,82.8747 -0.3085,3.9342 -0.853,20.2336 -1.21,36.2209 -1.4702,65.8498 -7.1607,171.6703 -13.9352,259.1381 -4.6356,59.852 -7.9882,96.3651 -16.2989,177.5003 -1.633,15.9434 -5.4949,50.1872 -9.0674,80.4008 -7.1743,60.6773 -21.1045,161.025 -30.736,221.4115 -2.984,18.7087 -5.7669,36.2423 -6.1845,38.9635 -1.2359,8.0553 -15.8821,92.8422 -18.5894,107.6134 -1.3715,7.4835 -3.5988,19.7292 -4.9494,27.2126 -11.2084,62.1 -35.5262,178.0928 -53.0316,252.9534 -14.6245,62.541 -42.031,170.0072 -51.1805,200.6885 l -1.7508,5.8713 169.8952,0.3187 c 93.4423,0.1753 -7.8501,0.3164 -225.0945,0.3135 h -394.9896 l -1.4723,-7.6176 c -1.3808,-7.1451 -4.998,-27.2181 -25.7099,-142.6701 -4.5768,-25.5118 -13.2788,-73.9379 -19.3378,-107.6135 -6.059,-33.6755 -14.2091,-79.0402 -18.1113,-100.8102 -11.7262,-65.418 -31.4226,-175.0132 -50.2401,-279.5475 -4.2863,-23.811 -10.2293,-56.93 -13.2067,-73.5977 -2.9774,-16.6677 -5.9584,-33.088 -6.6244,-36.4896 -3.7142,-18.97 -9.6439,-54.1617 -9.6439,-57.2348 0,-1.964 -7.3381,-44.3533 -16.3068,-94.1985 -8.969,-49.8453 -16.3071,-91.4086 -16.3071,-92.3631 0,-1.4792 20.9065,-1.7392 141.6287,-1.7615 l 141.6285,-0.026 8.1175,-2.9339 c 18.2616,-6.6002 31.1396,-21.9755 34.7542,-41.4937 1.5765,-8.5112 1.5851,-79.3191 0.013,-88.0127 -4.1932,-23.1569 -22.3768,-40.9522 -45.2984,-44.3309 -5.4378,-0.8015 -89.9873,-1.2551 -236.9103,-1.2708 l -228.4549,-0.025 3.4288,-10.2047 c 7.8777,-23.445 14.127,-53.538 17.403,-83.8024 2.4176,-22.3337 2.4087,-72.3635 -0.017,-96.0181 -3.7279,-36.3526 -11.7417,-75.9885 -20.6516,-102.1429 -4.1744,-12.2534 -12.6562,-43.6879 -25.6951,-95.2283 -3.3889,-13.3956 -6.1616,-24.8472 -6.1616,-25.448 0,-0.6009 3.9352,-3.8346 8.7447,-7.1862 19.4546,-13.5568 42.9154,-36.0318 47.7565,-45.7499 20.7818,-41.7172 14.6154,-250.1317 -17.9302,-606.0244 -7.1382,-78.0557 -9.229,-96.7218 -11.9432,-106.6175 -12.6732,-46.2055 -53.6369,-79.5526 -115.0482,-93.6569 -17.6878,-4.0623 -72.2566,-9.2958 -152.5595,-14.6314 -4.363,-0.2898 -4.8012,-0.621 -4.5168,-3.4134 0.1732,-1.7007 0.4081,-6.9886 0.5219,-11.7508 0.1942,-8.1186 -0.267,-9.7774 -7.3939,-26.5942 -15.799,-37.2794 -22.8382,-66.9236 -26.6824,-112.3676 -1.3507,-15.9659 -1.3062,-16.7539 1.3606,-24.1202 2.2851,-6.3121 4.6284,-9.5313 13.6941,-18.8129 6.0155,-6.1589 20.4497,-18.4447 32.0759,-27.3019 11.6262,-8.8574 30.6508,-23.3359 42.2772,-32.1748 49.9277,-37.9576 72.6928,-62.2961 79.0154,-84.4763 2.3147,-8.1203 2.4436,-29.9733 0.2763,-46.843 -1.0193,-7.9334 -1.0881,-11.8036 -0.2218,-12.4656 0.6912,-0.5279 3.7662,-2.4275 6.8336,-4.2209 7.9485,-4.6479 17.2955,-15.6189 20.509,-24.0725 3.6605,-9.6293 4.4583,-28.9514 1.8547,-44.9097 -1.0479,-6.4218 -3.2924,-23.9217 -4.988,-38.8887 -7.292,-64.3642 -15.1506,-99.4512 -28.5352,-127.4044 -10.0037,-20.8923 -22.5744,-33.9577 -37.1445,-38.6062 -17.4786,-5.5766 -49.8482,2.4306 -70.9809,17.5583 l -7.8712,5.6346 -9.422,-3.0479 c -25.5224,-8.2562 -59.2575,-11.0289 -98.5036,-8.096 -78.2395,5.847 -122.6993,20.8391 -156.492,52.7705 -21.0144,19.8569 -37.3609,53.1609 -40.4117,82.3345 l -0.8212,7.8526 -8.2776,6.6284 c -19.8772,15.9172 -33.3307,37.8042 -40.0921,65.2242 -2.3757,9.6349 -2.6844,14.0381 -2.6707,38.1063 0.017,29.9596 1.0203,37.9567 8.3972,66.9328 4.4777,17.5883 8.5054,29.7105 10.8451,32.6405 0.815,1.0205 2.142,7.7 2.949,14.8433 4.2257,37.4016 13.6146,83.3323 23.0504,112.764 11.6235,36.2551 23.7716,56.5581 38.8725,64.9672 3.4564,1.9248 6.5631,2.1786 22.9412,1.8746 l 18.9432,-0.3516 0.6381,5.3077 c 0.3509,2.9192 0.8755,18.9449 1.1659,35.6127 0.5639,32.3743 -0.3347,42.8828 -5.6067,65.5576 l -2.7321,11.7508 -5.4086,0.3562 c -2.9746,0.1959 -12.2031,1.4829 -20.5075,2.8599 -8.3045,1.3771 -20.1766,3.2981 -26.3824,4.269 -34.0221,5.3228 -76.4317,27.7612 -130.0744,68.8205 -55.2057,42.2557 -93.3449,78.3795 -219.2061,207.6214 -111.9519,114.9591 -127.6136,129.9326 -161.2572,154.1721 -32.6611,23.5315 -52.319,31.3897 -84.304,33.7006 -44.0055,3.1793 -167.1141,6.2701 -250.7298,6.295 -34.9689,0.012 -64.1777,0.4278 -64.9088,0.9277 -0.731,0.4998 -1.9634,2.1425 -2.7386,3.6503 -1.3991,2.7214 -1.4829,2.6932 -11.3542,-3.8229 -5.4694,-3.6105 -14.293,-8.9699 -19.6078,-11.9098 -12.7234,-7.0382 -18.5527,-11.2887 -38.0495,-27.7444 -20.3347,-17.1629 -23.2413,-19.3531 -31.0779,-23.417 -6.9332,-3.5954 -20.9896,-5.6747 -38.62,-5.7129 -8.6479,-0.019 -18.9264,-1.3822 -24.4326,-3.2412 -1.1353,-0.3832 1.8801,-4.0045 8.8207,-10.5932 7.8066,-7.4109 10.4508,-10.6921 10.1803,-12.633 -0.5754,-4.1293 -6.243,-3.8948 -27.2834,1.1291 -13.3558,3.1891 -23.8168,4.8533 -35.2898,5.614 -19.8212,1.3143 -26.2995,2.9814 -45.6299,11.7413 -16.7356,7.5841 -26.918,10.7286 -43.5602,13.4522 l -11.2792,1.8459 -27.9782,-6.7309 c -151.4092,-36.4256 -252.1168,-64.8987 -329.8585,-93.2615 -12.6774,-4.6252 -28.7574,-9.9134 -35.7331,-11.7517 -23.113,-6.0909 -39.0646,-11.9041 -56.1683,-20.4696 -39.0434,-19.5528 -69.1096,-45.3664 -122.4651,-105.1433 -13.0313,-14.5995 -31.4513,-34.9162 -40.9334,-45.1481 -10.5008,-11.3314 -17.0344,-19.329 -16.7138,-20.4591 0.2895,-1.0205 3.8558,-9.2275 7.9248,-18.2379 6.4352,-14.2491 7.2119,-16.7402 5.9633,-19.1292 -2.6297,-5.0316 -40.7456,-55.5184 -74.0453,-98.0774 -56.0419,-71.6251 -104.2293,-127.6625 -145.2273,-168.886 -42.7183,-42.9533 -63.5003,-57.9373 -89.8298,-64.7677 -14.0228,-3.6378 -55.8575,-11.7214 -84.974,-16.4193 l -21.5686,-3.4801 -2.9935,-6.049 c -4.1846,-8.4563 -12.5778,-17.2234 -22.6227,-23.6299 -8.3638,-5.3345 -31.1885,-15.488 -34.8162,-15.488 -3.4572,0 -4.6375,-3.5035 -6.9374,-20.5931 -2.1779,-16.1841 -7.2883,-67.3796 -7.2725,-72.8554 0.013,-2.3632 1.0957,-2.6201 16.1658,-3.8135 13.996,-1.1083 16.8904,-1.7188 21.6283,-4.5622 9.5993,-5.7606 16.6598,-17.0026 23.1394,-36.8431 9.7143,-29.7445 14.5661,-66.4571 16.3299,-123.5631 0.7669,-24.8286 1.4978,-33.2107 4.0447,-46.3851 11.9723,-61.9312 3.0935,-117.4488 -23.7535,-148.5239 -7.5394,-8.7267 -20.3465,-19.1781 -30.3691,-24.7826 -4.6504,-2.6007 -13.634,-9.2144 -19.9633,-14.6972 -54.618,-47.3132 -114.5879,-81.0468 -163.0364,-91.7094 -15.0056,-3.3024 -44.2903,-3.0457 -56.9362,0.499 -15.539,4.3559 -29.753,12.4921 -41.0369,23.4901 l -5.5673,5.4262 -6.773,-10.4237 c -24.078,-37.0562 -69.0422,-55.9961 -119.7954,-50.4604 -24.2769,2.6481 -57.6289,11.389 -58.3636,15.2961 -0.5033,2.6756 2.2432,2.7226 14.2746,0.2449 19.7574,-4.0689 56.7193,-3.596 62.8432,0.804 1.3423,0.9645 1.0373,1.0768 -1.2393,0.4567 -1.6609,-0.4523 -11.4451,-1.1105 -21.7426,-1.4625 -14.2225,-0.4863 -20.8248,-0.1822 -27.4679,1.2645 -33.6725,7.3334 -50.4624,32.2474 -54.9346,81.516 -1.7042,18.7747 -0.065,42.5823 3.8162,55.4464 2.6267,8.705 11.7285,24.4455 22.8259,39.4749 9.4784,12.837 29.4379,33.0569 38.8496,39.3567 14.5633,9.7479 23.0772,10.4664 40.1829,3.3911 4.0771,-1.6864 7.5897,-2.885 7.8057,-2.6637 0.2162,0.2213 -0.4943,5.629 -1.5785,12.0171 -3.0496,17.9663 -3.7079,61.2286 -1.2025,79.0276 8.1982,58.2416 36.3743,109.935 73.8762,135.5376 13.8003,9.4215 24.0444,13.2149 36.1338,13.3807 9.0751,0.1244 10.2883,-0.1876 19.9307,-5.1245 5.647,-2.8914 11.898,-5.2516 13.891,-5.2449 9.691,0.032 24.9321,11.8339 34.9291,27.0466 l 5.3847,8.1939 0.776,23.5018 c 0.8724,26.4225 -0.712,55.9605 -4.3059,80.272 -1.297,8.7733 -2.3581,16.069 -2.3581,16.2127 0,0.1438 -3.97,3.5982 -8.8224,7.6763 -14.9601,12.5735 -24.7004,27.9051 -27.885,43.8917 l -1.5463,7.7629 -11.9772,8.6734 c -15.4587,11.1948 -44.1244,40.4304 -56.7196,57.8473 -26.2391,36.2839 -45.4339,74.7539 -65.2679,130.8089 -18.2869,51.6829 -18.7207,53.2458 -24.0451,86.5855 -1.5754,9.8646 -4.222,25.1717 -5.8813,34.0158 -1.6593,8.844 -3.3929,19.4909 -3.8524,23.6596 -1.1802,10.7044 -1.3122,10.8112 -9.695,7.8357 -10.1304,-3.5955 -33.0083,-9.3933 -45.8224,-11.6125 -27.2857,-4.7251 -42.6998,-5.8419 -90.2037,-6.5356 -50.4714,-0.7371 -64.3232,0.012 -86.7566,4.6932 -66.6675,13.9111 -99.3311,56.3844 -84.6535,110.0772 35.6469,130.4012 70.8688,310.7507 94.2527,482.6094 27.7062,203.6258 41.5029,401.9238 40.9872,589.1007 -0.098,36.0567 -0.085,71.1238 0.034,77.927 l 0.214,12.3693 6.361,6.3703 c 6.2866,6.2955 12.1083,9.0694 19.0655,9.0845 3.0156,0.012 3.22,0.4089 3.9329,7.7378 4.8505,49.8773 4.597,209.123 -0.4909,308.3062 -10.2505,199.8195 -34.8005,409.4013 -73.0981,624.0342 -12.8003,71.7369 -29.32,155.7423 -31.0744,158.0185 -0.9473,1.2291 -57.8478,1.5424 -277.3555,1.5273 -151.89,-0.012 -276.7073,-0.4279 -277.3716,-0.9277 -0.6643,-0.4999 -2.2284,-3.9702 -3.4756,-7.7119 -5.9089,-17.7271 -22.69002,-32.1558 -41.68957,-35.8456 -4.13239,-0.8025 -47.81259,-1.2625 -119.88064,-1.2625 -62.3588,0 -113.37692,-0.4175 -113.37366,-0.9277 0,-0.5103 9.10801,-5.4654 20.2326,-11.0115 110.8761,-55.2757 192.96197,-151.8294 231.1901,-271.9376 10.26787,-32.2604 18.03467,-74.4964 19.89367,-108.183 l 0.8196,-14.8492 3.7457,-0.6277 c 2.0602,-0.3453 5.6482,-0.7724 7.9734,-0.9491 4.2184,-0.3208 4.2286,-0.3362 4.5988,-6.9921 0.2086,-3.7495 -0.2144,-7.2702 -0.9661,-8.04 -0.9531,-0.9761 -37.84083,-1.5472 -128.41047,-1.9881 l -127.0734,-0.6184 -0.37297,-27.8311 c -0.7875,-58.7578 5.82106,-109.4572 18.24356,-139.9585 14.02293,-34.4311 39.02003,-84.2663 53.82145,-107.3005 7.23704,-11.2625 18.86493,-24.8669 21.254,-24.8669 0.81828,0 2.06447,1.2961 2.76927,2.88 2.46455,5.539 13.47965,17.8584 21.65922,24.2238 10.1627,7.9087 33.37692,19.7832 48.7144,24.9182 22.57337,7.5574 50.386,13.0217 82.13854,16.1373 19.4282,1.9064 67.5423,1.9064 86.9701,0 32.7325,-3.212 64.9385,-10.4443 80.383,-18.0514 17.7104,-8.723 20.5918,-18.6345 9.7789,-33.6381 -7.2215,-10.0201 -42.2686,-41.7112 -56.3168,-50.9242 -20.7887,-13.6334 -51.7125,-21.6407 -108.1321,-27.9994 -15.2801,-1.7222 -32.5002,-3.9532 -38.26694,-4.9578 -32.68143,-5.6939 -41.34839,-19.1719 -17.70373,-27.5316 13.44196,-4.7526 23.14137,-5.8727 49.93107,-5.7663 22.0341,0.088 26.6127,0.4507 34.8535,2.7654 13.6158,3.8245 29.2392,11.783 54.3179,27.6695 38.6675,24.4944 64.3696,35.9075 93.8616,41.6797 27.6771,5.4169 43.0617,4.5029 62.3079,-3.7018 30.0647,-12.8167 63.7233,-47.5737 93.8238,-96.8857 10.9758,-17.9811 35.8943,-67.6013 35.8943,-71.4763 0,-2.0658 -0.5628,-2.3634 -3.3218,-1.7564 -18.1388,3.9898 -27.1735,4.7258 -50.4306,4.1077 -25.3715,-0.6742 -41.0642,-2.8301 -65.6958,-9.0255 -38.0838,-9.5792 -71.3325,-26.9198 -69.9919,-36.5041 1.4286,-10.2136 38.6631,-16.499 123.6085,-20.8657 41.0802,-2.1119 63.5436,-3.7184 71.1912,-5.0914 27.1007,-4.8656 50.562,-37.2428 58.1574,-80.2587 5.4041,-30.6061 0.013,-83.4898 -11.3435,-111.1543 -15.0277,-36.6265 -49.5286,-58.8432 -105.3219,-67.8214 -18.836,-3.0311 -73.9162,-3.0196 -93.3992,0.02 -7.1901,1.1215 -13.5952,2.3698 -14.234,2.7741 -0.6386,0.4042 -5.5869,7.509 -10.996,15.7886 -63.1115,96.6008 -121.8759,170.8839 -144.9868,183.2747 -23.26,12.4705 -17.3199,-17.1714 17.9705,-89.6757 8.7751,-18.0283 22.3417,-44.4678 30.1482,-58.7544 21.8708,-40.0257 20.7008,-37.571 18.6064,-39.0373 -1.1275,-0.7893 -6.1468,-0.975 -13.2872,-0.4915 -38.4754,2.6056 -96.4831,20.4187 -173.94036,53.4139 -19.1238,8.1463 -59.56285,26.6623 -62.78789,28.7488 -1.52171,0.9846 -1.72939,6.004 -1.39348,33.6868 0.217,17.8912 0.62263,32.9081 0.90118,33.3707 1.03056,1.7116 -2.0048,82.6072 -3.70478,98.7323 -4.34237,41.1896 -11.29898,60.6098 -21.71166,60.6098 -20.11228,0 -21.67931,-67.3644 -4.15385,-178.5665 2.51898,-15.9827 3.28586,-23.7317 2.43493,-24.6032 -0.85093,-0.8713 -3.4524,-0.3724 -8.25976,1.5839 -33.01839,13.4368 -67.34453,38.6879 -101.88547,74.9493 -19.71067,20.6926 -24.99717,27.6938 -31.22903,41.3585 -22.94623,50.3134 -16.48292,98.0161 19.98929,147.5323 15.00889,20.3766 38.69939,42.8973 63.83048,60.6786 7.30791,5.1706 14.03486,10.0491 14.9486,10.841 1.3089,1.1341 1.48633,3.9581 0.83596,13.3061 -3.31684,47.6825 -17.12643,99.2637 -38.11435,142.363 -3.80977,7.8236 -11.77579,23.9656 -17.70216,35.8712 -17.00605,34.1634 -28.31195,72.7225 -33.1855,113.1796 -1.65891,13.771 -2.0622,53.6656 -0.6345,62.7745 l 0.92086,5.8754 H 712.1526 c -18.97484,0 -34.49971,-0.2252 -34.49971,-0.5004 0,-0.2754 0.88177,-8.2072 1.9595,-17.6264 2.69394,-23.5451 2.66052,-66.0454 -0.07,-89.4866 -4.76397,-40.8907 -13.81926,-78.2896 -27.85296,-115.035 -5.52533,-14.4672 -19.591,-44.6777 -25.22697,-54.1828 -6.17648,-10.4168 -18.9759,-37.1152 -25.97514,-54.1818 -21.8286,-53.2254 -37.0069,-119.0564 -37.89868,-164.3725 l -0.29192,-14.8359 14.58458,-9.9028 c 72.14429,-48.9853 119.49957,-110.9945 131.80292,-172.5885 3.26956,-16.3687 2.96908,-46.3987 -0.62943,-62.9073 -6.48251,-29.7389 -17.99472,-54.6097 -34.10861,-73.6873 -15.7451,-18.641 -51.57803,-54.0551 -69.75169,-68.9362 -28.24419,-23.1272 -57.74364,-41.5468 -82.69643,-51.6361 -11.5763,-4.6807 -14.69067,-4.9105 -13.75531,-1.0148 4.74805,19.7756 15.89992,104.9442 19.07101,145.6492 1.91317,24.5576 1.91015,71.0449 0,84.1116 -2.95821,20.1794 -8.49451,31.9277 -16.69988,35.4385 -29.32706,12.548 -43.4796,-92.982 -37.02432,-276.0753 l 0.74324,-21.0807 -13.22455,-6.3522 c -95.31308,-45.7812 -206.15034,-86.0481 -270.1638,-98.1499 -16.79099,-3.1743 -47.89419,-4.747 -47.89419,-2.4215 0,0.8613 1.85088,4.7002 4.11306,8.531 12.17043,20.6091 40.92913,74.893 58.08047,109.6306 30.30905,61.3868 43.85834,96.2177 44.98941,115.6535 0.53917,9.2649 0.32196,10.8792 -1.82824,13.5886 -14.49756,18.2676 -73.95011,-45.1377 -164.098473,-175.0087 -16.577699,-23.8824 -43.992783,-64.6853 -52.988772,-78.8652 -3.321781,-5.2359 -6.755954,-9.8078 -7.631506,-10.1597 -0.875551,-0.3519 -7.733546,-1.4643 -15.2400128,-2.4719 -50.3354462,-6.7569 -107.5084132,-5.2865 -147.6658362,3.7978 -68.74544,15.5514 -107.66253,49.7637 -121.71676,107.0021 -8.21048,33.4387 -9.64428,45.3275 -9.68074,80.2702 -0.0263,25.1848 0.3988,33.8443 2.10907,42.966 7.92964,42.2918 25.97605,75.3711 50.89512,93.2914 15.21336,10.9406 18.39476,11.4156 110.62389,16.5147 77.243781,4.2707 107.87518321,6.9627 133.967227,11.7738 30.881751,5.6943 41.906752,12.4225 36.829829,22.4761 -10.972934,21.729 -81.64037,48.1188 -150.262422,56.1135 -24.484924,2.8525 -68.055674,1.9313 -84.554364,-1.7876 -6.31139,-1.4228 -12.13763,-2.594 -12.94722,-2.6031 -1.99821,-0.022 -1.72509,0.6576 11.67668,29.0518 48.54337,102.8485 106.987799,172.7468 162.249453,194.0468 23.150791,8.9234 43.270116,9.221 81.994885,1.213 l 15.280985,-3.1599 16.426897,14.5205 c 9.0348,7.9864 16.4269,14.9537 16.4269,15.483 0,0.5293 -6.41505,6.8444 -14.25564,14.0339 -7.840609,7.1893 -15.466776,14.7489 -16.947034,16.7992 -1.480267,2.0502 -3.54529,3.7277 -4.588933,3.7277 -1.955937,0 -31.896608,-20.4916 -57.684164,-39.4794 -8.048157,-5.9259 -16.043566,-11.7206 -17.7675777,-12.8767 -3.0120581,-2.0202 -3.8145018,-1.9277 -20.5346263,2.3659 -43.304658,11.12 -81.68109,30.4642 -103.274395,52.0568 -21.52568,21.525 -29.88982,44.3544 -26.99882,73.6917 3.25321,33.0125 13.67002,64.5365 28.30806,85.6673 12.72376,18.3674 34.198714,33.957 49.467252,35.9105 8.815115,1.1278 14.007896,-0.1629 66.5037375,-16.5308 68.6485035,-21.4042 96.9580135,-27.8185 104.2759105,-23.6261 4.14908,2.3769 4.59108,5.9099 1.51245,12.0896 -8.167963,16.395 -42.024643,43.3522 -76.194342,60.667 -18.475424,9.362 -31.96583221,14.2758 -47.639015,17.3523 -5.938594,1.1657 -10.985318,2.6967 -11.21493,3.402 -0.229602,0.7054 4.603871,6.1757 10.741061,12.1563 48.570098,47.3311 90.573918,73.793 127.691816,80.4446 12.82671,2.2985 17.35611,2.2776 28.88277,-0.1332 16.69237,-3.4912 40.08778,-17.4839 62.45891,-37.3566 7.31712,-6.4998 16.79486,-17.2093 28.99006,-32.7577 20.77242,-26.4841 27.27618,-33.6196 37.53663,-41.1833 19.48916,-14.3669 64.66785,-27.6208 77.35892,-22.6945 6.45645,2.5062 6.78042,6.3097 1.11484,13.0876 -5.85569,7.0054 -14.54176,12.3608 -48.48968,29.8963 -45.0243,23.257 -65.03225,38.1982 -77.85591,58.1397 -3.34534,5.2023 -10.5175,18.5253 -15.93814,29.6067 -8.63244,17.6475 -9.91674,21.1298 -10.34753,28.0577 -0.44378,7.1369 -0.19715,8.2114 2.5247,10.9986 14.83742,15.1939 83.49319,2.656 147.6406,-26.9618 58.72542,-27.1143 96.71887,-60.9243 105.73196,-94.0894 1.12068,-4.1237 2.77655,-7.5746 3.72638,-7.7658 3.99025,-0.8035 24.59008,13.834 44.55134,31.6566 12.13477,10.8347 48.97835,47.9285 55.51455,55.8916 8.86631,10.8019 31.4557,49.611 31.4557,54.0416 0,0.8464 -76.87874,1.4654 -234.923,1.8917 -186.10901,0.5018 -235.30309,0.9564 -236.75221,2.188 -2.20704,1.8757 -2.47264,11.2304 -0.37971,13.3736 0.79723,0.8164 3.21119,1.4843 5.36435,1.4843 2.15316,0 4.26125,0.574 4.68462,1.2754 0.42338,0.7015 1.27749,8.6081 1.89804,17.5702 4.08442,58.9881 19.9382,117.621 46.42907,171.7111 20.91221,42.6994 47.7069,80.3801 82.68292,116.2749 29.4903,30.265 54.42676,49.9324 94.84767,74.8065 14.57264,8.9677 41.2057,22.8399 43.85001,22.8399 0.63315,0 1.75713,0.7478 2.49776,1.6616 2.10014,2.5913 -26.33404,3.2862 -134.46504,3.2862 -104.06807,0 -102.86515,-0.073 -115.62713,7.0395 -3.20455,1.786 -8.83909,6.4817 -12.52117,10.4347 -5.92251,6.3583 -8.34071,10.556 -13.62649,23.6539 l -1.37273,3.4016 -101.189146,-0.2986 -101.189156,-0.2986 z m 74.543781,-873.238 c 4.483774,-4.7351 12.152738,-12.0967 17.042148,-16.359 4.88941,-4.2625 8.88984,-8.0676 8.88984,-8.456 0,-0.3884 -6.86639,-6.7414 -15.25864,-14.118 l -15.258649,-13.412 -16.449237,3.2356 c -25.189318,4.9547 -35.613633,6.1455 -47.992828,5.4823 -9.506913,-0.5091 -11.131857,-0.3331 -9.98521,1.0817 1.814873,2.2393 68.473356,50.4278 70.689555,51.1027 0.0939,0.028 3.839248,-3.8223 8.323021,-8.5573 z M 4170.6259,2029.8037 c -0.3223,-0.8601 -10.7997,-17.4196 -23.2833,-36.7988 -46.6885,-72.4786 -51.2786,-79.7925 -51.2181,-81.6122 0.034,-1.0248 3.8498,-4.9247 8.4793,-8.6664 4.6295,-3.7418 14.6424,-13.2043 22.2512,-21.028 24.3774,-25.0662 39.8371,-46.8452 53.1207,-74.8346 13.9288,-29.3487 20.237,-52.8954 22.6496,-84.5447 3.027,-39.7094 -5.0923,-79.5219 -24.1288,-118.3127 -12.332,-25.129 -27.5416,-46.1951 -50.787,-70.3425 -29.3575,-30.4965 -63.339,-54.8655 -104.5744,-74.9928 -181.0461,-88.3698 -422.2383,-55.0356 -548.1964,75.764 -61.1045,63.4532 -86.103,143.195 -69.1525,220.587 14.4541,65.9946 58.4342,126.2683 125.5741,172.0964 90.8632,62.0212 218.1937,89.4296 340.6332,73.3229 44.5063,-5.8547 86.7304,-17.0828 126.5589,-33.654 l 17.8462,-7.4251 15.9756,7.4566 c 24.834,11.5915 59.7238,28.1019 99.3219,47.0009 19.9308,9.5123 36.9753,17.3518 37.8769,17.4215 0.9015,0.069 1.3754,-0.5773 1.0529,-1.4375 z M 1606.8665,4960.1224 c 0.3343,-1.5307 5.7553,-17.8118 12.047,-36.1803 47.904,-139.8561 88.8591,-299.5756 116.8654,-455.7608 4.9907,-27.8311 15.78,-94.5822 18.1019,-111.9928 0.7259,-5.4425 2.6734,-19.9147 4.328,-32.1603 17.8841,-132.3621 27.4046,-278.8738 25.3593,-390.2533 -0.4685,-25.5118 -1.2612,-51.3947 -1.7616,-57.5175 -0.5002,-6.1228 -0.6993,-11.5499 -0.4423,-12.0601 0.257,-0.5103 28.3896,-0.9277 62.5169,-0.9277 h 62.0496 l 0.6978,6.4939 c 3.2361,30.121 4.8506,133.4325 3.1943,204.4036 -4.8635,208.3919 -25.2959,418.1567 -63.6164,653.1022 -12.9357,79.3092 -41.5336,230.7589 -44.1936,234.0408 -1.036,1.2784 -20.6135,1.5954 -98.5234,1.5954 h -97.2304 z m 225.555,1.6866 c 0,-0.6031 3.7565,-11.9372 8.3477,-25.1866 97.9649,-282.71 157.5499,-603.931 168.1268,-906.3665 1.3554,-38.7607 0.8465,-127.7491 -0.8865,-154.9262 l -0.7688,-12.0601 h 249.7689 249.7691 l -0.7496,7.1124 c -2.3364,22.172 -3.3584,89.3337 -2.0877,137.1854 7.1991,271.1 52.752,551.2494 133.0228,818.0882 4.6128,15.3347 8.3871,28.6603 8.3871,29.6128 0,0.9523 -2.4433,6.7743 -5.4297,12.9377 -10.0337,20.708 -14.8211,48.5647 -13.4583,78.31 l 0.7509,16.3894 h -397.3964 c -230.2213,0 -397.3963,-0.4612 -397.3963,-1.0965 z m 1131.7907,-2.0763 c -0.648,-1.7451 -1.1785,-3.8324 -1.179,-4.6385 -5e-4,-0.8061 -1.6449,-5.0242 -3.6542,-9.3735 -4.5309,-9.8077 -15.7651,-21.4047 -26.2597,-27.1081 -4.1419,-2.251 -7.5307,-4.2515 -7.5307,-4.4456 0,-0.1942 -1.645,-8.65 -3.6557,-18.7907 -12.2943,-62.0076 -26.3072,-142.8556 -41.6395,-240.2418 l -1.8145,-11.5249 7.1124,-16.9246 c 3.9117,-9.3086 13.211,-31.3968 20.6652,-49.085 16.9984,-40.3358 47.555,-113.9977 59.7772,-144.103 5.1097,-12.5858 9.717,-23.3411 10.2386,-23.9006 0.5217,-0.5593 4.3603,5.2852 8.5301,12.9879 52.3831,96.7632 131.1882,233.0545 210.9925,364.9055 l 22.2245,36.719 5.6805,1.8671 c 3.1242,1.0269 7.9907,2.4759 10.8141,3.22 3.023,0.7966 5.1338,2.0783 5.1338,3.1174 0,3.3078 -3.8681,13.5803 -11.4097,30.3004 -13.8727,30.7571 -16.8186,44.2838 -16.9027,77.6178 l -0.057,22.574 h -122.9441 -122.944 z m 582.9478,-3.4724 c -2.6122,-9.2018 -10.6569,-21.0318 -18.7029,-27.5035 -14.0204,-11.2772 -31.6276,-18.089 -68.2871,-26.4187 -30.3014,-6.885 -34.5463,-8.6087 -44.0087,-17.8694 -7.3517,-7.195 -26.0917,-31.7002 -35.7945,-46.806 l -4.5702,-7.1156 3.1928,-3.0301 c 1.7559,-1.6666 3.1929,-3.2485 3.1929,-3.5153 0,-0.2667 -4.3669,-25.2021 -9.704,-55.4119 -57.5025,-325.4784 -128.9214,-664.5689 -185.8827,-882.5544 l -8.4346,-32.2777 4.2121,-15.3444 c 6.4213,-23.3935 14.4353,-56.6281 18.4643,-76.5725 5.8363,-28.8908 7.8311,-45.8643 7.8498,-66.7945 0.016,-17.6851 -0.2445,-19.9881 -3.3591,-29.6865 -8.2937,-25.8242 -25.1989,-55.5328 -44.1253,-77.5432 -20.6623,-24.0291 -51.0481,-47.7086 -85.3347,-66.5007 -8.4079,-4.6083 -8.654,-4.8845 -13.6828,-15.3637 -12.7943,-26.6615 -28.8505,-53.0949 -40.5435,-66.747 -11.309,-13.204 -19.5153,-19.5434 -36.2612,-28.0124 -40.628,-20.5473 -107.3309,-36.1507 -200.519,-46.9064 l -25.3707,-2.9282 -16.9065,-11.6218 c -19.8946,-13.676 -44.3594,-26.5681 -53.6944,-28.2949 -7.2912,-1.3489 -24.7523,0.012 -42.6968,3.3178 -5.8483,1.0786 -10.9203,1.6674 -11.2711,1.3082 -0.3508,-0.3592 0,-1.8641 0.7688,-3.3442 2.2342,-4.2752 1.7354,-13.5184 -0.9277,-17.188 -3.6917,-5.087 -7.2415,-4.6659 -14.7782,1.753 -7.7974,6.641 -36.0363,24.7173 -37.0276,23.7023 -0.3748,-0.3839 0.4964,-2.3917 1.936,-4.462 2.4123,-3.4692 2.7157,-6.1153 3.873,-33.7778 1.7213,-41.1485 1.7034,-193.4514 -0.028,-240.2927 -4.0105,-108.4748 -11.0926,-194.4844 -21.8469,-265.3227 -2.2965,-15.1264 -2.2982,-15.5127 -0.08,-17.8129 2.2245,-2.306 2.6365,-1.9846 21.4003,16.6987 67.6056,67.3144 154.2138,136.339 227.5683,181.366 21.5179,13.2083 23.8218,14.3043 38.102,18.1271 35.2429,9.4345 87.6038,15.6184 142.9735,16.8858 26.9778,0.6175 98.1267,0.664 125.6237,0.082 40.5204,-0.8573 136.3734,-6.3406 177.5641,-10.1576 36.7345,-3.404 63.7087,-4.2633 74.6284,-2.3773 10.7342,1.8541 21.4093,7.0847 47.3715,23.211 34.7098,21.5599 42.6379,24.6525 59.652,23.2689 5.3919,-0.4385 11.434,-1.1064 13.4271,-1.4843 l 3.6238,-0.6871 -4.2138,4.5165 c -5.8183,6.2365 -3.974,7.1988 11.4612,5.9806 12.4949,-0.9862 31.434,-1.0737 51.3367,-0.2371 10.2752,0.4319 13.3821,-0.02 29.7105,-4.3188 19.8242,-5.2195 24.6458,-5.2864 24.6458,-0.3424 0,3.1588 7.1997,10.7687 15.703,16.5976 26.3698,18.0765 104.3918,48.1579 169.1087,65.1996 66.0351,17.389 148.301,31.2485 220.7355,37.1876 27.1286,2.2245 33.0125,1.6927 56.4381,-5.101 76.6582,-22.2318 202.3544,-92.3493 318.7648,-177.8178 11.8648,-8.7112 21.9998,-15.3706 22.5221,-14.7988 0.5222,0.572 3.4131,7.9977 6.4242,16.5016 7.9649,22.4953 13.1773,36.5274 31.0142,83.4932 35.2411,92.7927 45.4187,122.7543 47.2555,139.1159 2.6708,23.7909 -3.4034,63.4261 -20.858,136.1023 -19.4198,80.8586 -21.5234,89.4296 -22.0914,90.0113 -0.3272,0.335 -6.2871,-0.2987 -13.2445,-1.4084 -6.9573,-1.1095 -18.1072,-2.0174 -24.7778,-2.0174 -14.5874,0 -21.5916,2.3358 -41.6868,13.9018 -43.1782,24.8518 -82.8331,59.3283 -82.8331,72.016 0,1.0476 -0.2211,1.9046 -0.4911,1.9046 -0.2702,0 -16.7129,2.238 -36.5396,4.9734 -216.6597,29.891 -349.4979,66.2488 -389.2393,106.5342 -21.2174,21.5077 -41.9176,79.2968 -55.0974,153.8152 -1.083,6.1228 -2.3387,11.845 -2.7906,12.716 -0.6605,1.273 -27.5953,1.5744 -137.3166,1.5367 -84.5509,-0.03 -140.1723,0.4261 -146.1583,1.1964 -24.6641,3.1737 -43.3043,22.1153 -46.4905,47.2421 -1.4911,11.7599 -1.5347,67.9517 -0.063,81.0599 2.1415,19.0708 12.971,34.7089 30.0081,43.3322 l 9.1705,4.6417 123.8754,0.6185 123.8754,0.6185 -0.3274,3.0923 c -0.1799,1.7008 -7.4262,42.6124 -16.1024,90.9148 -8.6764,48.3023 -16.0124,90.7268 -16.302,94.2765 -0.2898,3.5497 -2.7313,18.5784 -5.426,33.3973 -2.6946,14.8187 -5.9109,32.7877 -7.1472,39.931 -1.2365,7.1433 -5.2382,29.4081 -8.8929,49.4774 -3.6546,20.0693 -9.4113,52.075 -12.7924,71.1238 -3.3812,19.0489 -7.1971,40.2005 -8.4796,47.0036 -1.2826,6.8032 -5.3594,29.3463 -9.0596,50.0959 -3.7002,20.7496 -8.3404,46.6325 -10.3116,57.5175 -1.9712,10.8851 -8.1824,45.3956 -13.803,76.69 -5.6204,31.2945 -12.7202,70.8146 -15.7774,87.8225 -3.057,17.0079 -9.0505,50.4051 -13.3189,74.2161 -15.8495,88.4179 -27.174,151.4298 -30.4314,169.328 l -3.3529,18.4217 -7.8514,4.8635 c -14.471,8.9637 -17.4295,14.1306 -12.0791,21.0958 1.3286,1.7298 2.4157,3.4747 2.4157,3.8776 0,0.403 -6.4842,0.7326 -14.4092,0.7326 h -14.4094 z m 210.1416,5.5769 c 1.9688,-1.833 22.3957,-8.8847 31.304,-10.8065 4.6732,-1.0082 19.0963,-2.3869 32.0513,-3.0638 27.667,-1.4454 56.12,-5.014 68.8514,-8.6351 19.6601,-5.5917 32.5905,-14.621 37.4277,-26.1351 2.3803,-5.6662 2.6549,-7.9554 2.1205,-17.673 -0.6586,-11.9714 -6.388,-32.9056 -10.6501,-38.9124 -4.9393,-6.9612 -20.4427,-54.0298 -20.4427,-62.0645 0,-1.8318 0.8841,-2.3384 4.0799,-2.3384 2.244,0 4.6382,-0.6958 5.3205,-1.5462 0.6824,-0.8504 9.138,-30.4905 18.7904,-65.8668 77.8385,-285.2812 126.3158,-488.5909 133.6061,-560.332 2.9222,-28.7569 2.7386,-27.6444 3.879,-23.5017 0.5619,2.0409 4.8829,20.966 9.6027,42.0558 23.6459,105.6625 62.8048,258.7968 100.9015,394.5825 23.7384,84.6103 53.6443,186.6033 56.0827,191.2689 0.6148,1.1763 2.3414,2.3169 3.8371,2.5345 2.3412,0.3405 2.856,1.4274 3.7036,7.8172 1.5591,11.7565 0.2412,29.8627 -2.7694,38.0444 -2.3166,6.2958 -4.1845,8.533 -16.1193,19.3063 -7.4246,6.7019 -18.1195,16.5044 -23.7665,21.7831 -24.8647,23.2434 -44.6064,38.3398 -62.3048,47.6444 -10.6062,5.5761 -33.9436,13.614 -39.527,13.614 -4.3009,0 -46.0034,12.3353 -58.8733,17.4144 -18.2244,7.1922 -24.3883,13.438 -20.0121,20.2776 1.0698,1.6719 1.945,3.6161 1.945,4.3203 0,0.8747 -41.2218,1.2804 -130.0928,1.2804 -73.1273,0 -129.5905,-0.4678 -128.9454,-1.0683 z m 606.9191,0.4391 c 0,-0.346 1.579,-2.861 3.5086,-5.589 4.861,-6.8715 6.6489,-15.4816 5.6815,-27.3604 -0.8982,-11.0277 -4.1131,-28.2385 -5.6362,-30.1732 -0.5572,-0.7075 -4.6122,-11.8399 -9.0112,-24.7387 -4.3991,-12.8986 -9.9236,-29.0184 -12.2767,-35.8215 -2.3531,-6.8032 -5.3278,-15.9874 -6.6104,-20.4095 -2.3371,-8.0569 -9.4773,-42.2174 -9.4773,-45.3411 0,-1.1101 1.5781,-1.6624 4.7502,-1.6624 3.4692,0 4.927,-0.5837 5.4054,-2.1647 0.9225,-3.049 10.7417,-114.2212 15.7593,-178.428 13.723,-175.6044 19.9585,-303.2113 19.9759,-408.8073 0.013,-69.0011 -2.3964,-111.7496 -8.0096,-142.197 -1.4281,-7.7464 -16.3358,-58.1169 -20.4485,-69.0921 -0.7304,-1.9493 25.907,-2.0823 417.073,-2.0823 h 417.8535 l 4.444,17.6264 c 2.4441,9.6944 6.891,27.0888 9.8816,38.6542 2.9909,11.5653 7.2979,28.264 9.5712,37.1081 5.4528,21.2123 14.4409,56.0402 24.1009,93.3886 17.6471,68.2284 25.4626,98.4714 32.1963,124.5871 3.898,15.118 7.6389,28.5429 8.3131,29.833 0.6741,1.29 6.719,23.7093 13.433,49.8209 6.7139,26.1115 13.2198,51.3718 14.4576,56.134 3.7537,14.4425 14.6059,56.4549 16.4548,63.7022 0.9547,3.7418 3.6154,14.0392 5.9125,22.8833 8.1642,31.4321 29.7865,115.2962 33.9645,131.7337 2.3343,9.1842 10.9571,42.5815 19.1616,74.2162 13.9721,53.873 35.2812,136.489 47.2179,183.0665 2.8767,11.2251 8.1563,31.6748 11.7321,45.4437 3.5759,13.7689 6.2239,25.3188 5.8843,25.6665 -0.8053,0.8246 -1075.2629,0.8276 -1075.2629,0 z M 3623.766,4919.073 c 0,-0.2969 3.5653,-14.3516 7.923,-31.2326 4.3575,-16.8811 11.9956,-46.5566 16.9736,-65.9456 4.9778,-19.3889 10.3819,-40.2622 12.009,-46.385 1.627,-6.1229 6.2477,-23.9348 10.2681,-39.582 4.0202,-15.6472 13.7751,-53.4975 21.6773,-84.1116 7.9022,-30.6142 19.2503,-74.5873 25.218,-97.718 5.9677,-23.1307 19.1147,-74.0615 29.2157,-113.1796 10.1009,-39.1181 18.7297,-72.7937 19.1752,-74.8346 1.7917,-8.2094 2.0287,2.805 1.1576,53.8067 -1.0763,63.0148 -1.0957,251.1392 -0.031,305.1169 0.7426,37.6667 0.8226,38.6252 3.457,41.4942 l 2.6966,2.9367 -2.8959,11.0756 c -3.8624,14.7728 -6.9369,22.5093 -14.2327,35.8145 -21.5716,39.3397 -47.6484,66.0301 -81.3357,83.2498 -12.5422,6.411 -23.7757,11.0733 -25.3695,10.5293 -0.6908,-0.2358 -6.6203,1.8064 -13.1768,4.5382 -12.512,5.2132 -12.7292,5.2887 -12.7292,4.4271 z m -756.1575,-21.2492 c -20.4208,-4.7673 -27.0293,-7.4449 -33.8313,-13.7074 -7.1093,-6.5455 -21.9805,-25.312 -31.8591,-40.2041 l -6.8882,-10.3841 2.9774,-5.5074 c 2.645,-4.8929 34.3121,-76.434 37.1444,-83.9152 0.6152,-1.6251 1.3696,-2.6975 1.6764,-2.3834 0.3068,0.3142 5.1524,16.6726 10.7678,36.352 10.3385,36.2307 21.0208,71.5202 31.7057,104.7397 6.8094,21.1711 8.0235,19.6126 -11.6931,15.0099 z m -187.7707,-97.2155 c -1.1477,-5.2964 -4.2884,-23.5102 -4.2884,-24.8691 0,-0.7439 2.4802,2.7669 5.5117,7.802 l 5.5118,9.1545 -2.0978,4.7639 c -2.6172,5.9432 -3.8503,6.7805 -4.6373,3.1487 z m -11.4304,-65.5868 c -34.8178,-213.883 -53.5407,-389.7112 -62.9948,-591.586 -2.1336,-45.5594 -2.827,-177.7518 -1.1646,-222.0299 0.8302,-22.1103 1.8569,-44.0968 2.2816,-48.859 l 0.7722,-8.6586 62.0716,-0.3206 62.0717,-0.3205 -0.7372,5.507 c -0.4054,3.0289 -1.3584,22.0982 -2.1176,42.3764 -2.3784,63.5237 1.0608,171.3248 8.0429,252.0962 4.0369,46.7004 4.7737,37.5713 -18.2698,226.3593 -18.1835,148.9723 -45.5897,351.452 -47.8885,353.806 -0.3324,0.3403 -1.2628,-3.4263 -2.0675,-8.3703 z M 605.41632,4478.2307 c -4.18583,-7.3335 -12.02556,-19.4244 -17.42162,-26.869 -9.28832,-12.8144 -16.47375,-20.4745 -57.94759,-61.7759 -20.27679,-20.1926 -28.79242,-30.6426 -44.08293,-54.097 -11.45179,-17.566 -26.94699,-47.7893 -26.94699,-52.5598 0,-1.4731 3.53009,-7.7856 7.84464,-14.0278 26.66004,-38.5712 40.71788,-77.0897 40.82468,-111.8594 0.0579,-18.8176 -2.46816,-30.4598 -10.77766,-49.6735 -0.34091,-0.788 2.11807,-4.406 5.46437,-8.04 3.34618,-3.6339 8.41329,-10.3501 11.26,-14.9248 2.84684,-4.5747 5.99112,-8.3319 6.98741,-8.3493 2.71638,-0.047 16.92819,15.8936 25.08446,28.1367 15.84273,23.781 37.34775,63.5572 51.98011,96.1437 3.97127,8.8441 10.58267,23.302 14.69187,32.1287 18.28491,39.276 27.08641,79.6409 31.42828,144.1346 1.32283,19.6486 1.45642,87.1719 0.20563,103.9027 l -0.78608,10.5139 -15.09901,0.2749 -15.099,0.2747 z M 377.90569,4186.7042 c -5.60222,-3.1162 -19.32133,-23.346 -17.13474,-25.2663 1.5578,-1.368 24.34884,-5.3635 26.27575,-4.6062 2.29737,0.9027 4.72522,13.4666 4.03134,20.8615 -0.91452,9.7462 -5.81911,13.1014 -13.17235,9.011 z m -235.3634,-174.821 c 0,-0.6883 1.00139,-1.577 2.22528,-1.9748 1.2239,-0.3978 12.23106,-6.9032 24.46038,-14.4564 12.22929,-7.5532 24.9529,-15.2462 28.27468,-17.0956 3.32178,-1.8492 10.65989,-6.1295 16.30692,-9.5118 11.89902,-7.1269 23.53322,-12.8909 34.73069,-17.2068 39.90137,-15.3797 125.29597,-9.5626 141.04877,9.6083 5.22293,6.3563 1.67416,13.3649 -10.08043,19.9084 -11.51193,6.4083 -27.32022,9.4212 -82.35259,15.6959 -36.52763,4.1646 -56.52662,7.215 -76.70288,11.6994 -11.33243,2.5188 -18.04056,3.0732 -45.59896,3.7691 -21.51193,0.5431 -32.31186,0.3975 -32.31186,-0.4357 z m 51.5071,-2.0442 c 0.76849,-0.2397 1.7259,-4.4382 2.16367,-9.4884 0.43191,-4.982 1.0824,-11.1455 1.44557,-13.6967 0.45228,-3.1772 0.1998,-4.6385 -0.8014,-4.6385 -1.35198,0 -48.27533,28.2746 -48.27533,29.0893 0,0.4939 43.72954,-0.7234 45.46749,-1.2657 z M 4562.3195,2309.9078 c -10.5957,-2.836 -18.536,-7.7758 -20.9814,-13.053 -3.3668,-7.2652 -2.9722,-7.7572 8.1879,-10.2107 9.8892,-2.1743 31.908,-2.1192 44.3432,0.1113 10.6122,1.9031 26.7956,7.0608 29.5799,9.427 3.8296,3.2545 -5.8305,10.9091 -17.9296,14.2074 -9.0188,2.4584 -33.224,2.1887 -43.2,-0.4816 z m 46.5049,-2.0572 c 6.387,-2.2605 13.891,-7.3552 13.891,-9.4309 0,-1.7409 -7.1566,-4.6039 -20.5345,-8.2146 -9.4972,-2.5635 -14.4944,-3.1243 -28.9901,-3.2538 -21.3496,-0.1907 -31.406,1.6795 -31.406,5.8407 0,4.1822 3.2204,7.9827 9.4455,11.1469 4.9444,2.5132 8.5271,3.6958 18.9406,6.2517 5.6701,1.3917 32.7401,-0.247 38.6535,-2.34 z M 2212.0013,2020.217 c -8.8572,-3.2236 -18.5547,-8.8086 -18.0588,-10.4004 0.6255,-2.0083 29.1235,-11.4356 39.2144,-12.9725 15.7016,-2.3915 30.054,-1.4819 31.3539,1.9871 1.108,2.9569 -3.4843,11.4967 -8.5885,15.9705 -2.668,2.3388 -7.5555,5.0746 -10.8608,6.0798 -8.4444,2.568 -25.0983,2.2332 -33.0602,-0.6645 z m 31.6224,-0.5093 c 8.1689,-2.5175 13.4697,-6.6538 16.9758,-13.2462 1.6771,-3.1536 3.0492,-6.3066 3.0492,-7.0069 0,-2.1809 -17.3403,-3.1224 -28.0295,-1.5219 -10.1595,1.5212 -39.614,10.6889 -39.614,12.3299 0,1.2486 11.4866,7.0948 18.1189,9.2217 7.1987,2.3085 22.361,2.4234 29.4996,0.2234 z"
       id="path1" />
  </g>
</svg>
